<?xml version="1.0" standalone="no"?>
<!DOCTYPE svg PUBLIC "-//W3C//DTD SVG 20010904//EN"
 "http://www.w3.org/TR/2001/REC-SVG-20010904/DTD/svg10.dtd">
<svg version="1.0" xmlns="http://www.w3.org/2000/svg"
 width="1024.000000pt" height="331.000000pt" viewBox="0 0 1024.000000 331.000000"
 preserveAspectRatio="xMidYMid meet">

<g transform="translate(0.000000,331.000000) scale(0.100000,-0.100000)"
fill="#000000" stroke="none">
<path d="M7087 2439 c-111 -16 -189 -66 -228 -147 -21 -41 -24 -62 -24 -169
l0 -123 -82 0 -83 0 0 -95 0 -95 85 0 85 0 0 -380 0 -380 115 0 115 0 0 380 0
380 110 0 110 0 0 95 0 95 -111 0 -112 0 6 88 c3 48 11 100 18 114 19 42 70
62 140 54 l59 -7 0 94 0 94 -46 7 c-55 7 -79 6 -157 -5z"/>
<path d="M7493 2421 c-49 -23 -73 -63 -73 -121 0 -78 52 -130 130 -130 82 0
133 50 134 131 1 78 -36 123 -111 134 -26 4 -51 -1 -80 -14z"/>
<path d="M7900 1744 l0 -694 120 0 120 0 -2 693 -3 692 -117 2 -118 1 0 -694z"/>
<path d="M1140 2207 c0 -112 -3 -420 -7 -685 l-6 -482 121 0 122 0 0 498 1
497 23 -70 c21 -63 73 -211 251 -709 31 -88 63 -175 70 -193 l14 -33 80 0 80
0 165 498 166 497 0 -497 0 -498 125 0 125 0 0 690 0 690 -172 -2 -171 -3 -43
-130 c-24 -71 -96 -292 -160 -489 l-117 -359 -53 154 c-29 85 -105 306 -170
492 l-118 337 -163 0 -163 0 0 -203z"/>
<path d="M4040 1723 l0 -679 123 0 122 1 3 231 2 231 143 6 c79 3 168 13 201
22 139 37 254 131 297 243 30 78 37 206 14 291 -41 158 -123 245 -285 302 -60
21 -85 23 -342 27 l-278 4 0 -679z m534 437 c89 -20 130 -84 131 -200 0 -61
-5 -85 -25 -124 -39 -77 -74 -90 -248 -96 l-142 -5 0 218 0 217 123 0 c67 0
140 -5 161 -10z"/>
<path d="M5528 2031 c-61 -20 -139 -86 -173 -146 -8 -14 -11 0 -10 56 l0 74
-122 3 -123 3 0 -486 0 -485 124 0 125 0 3 288 c3 272 4 289 25 328 50 94 138
141 240 128 l52 -6 3 117 c2 64 0 119 -5 122 -16 9 -113 12 -139 4z"/>
<path d="M6081 2029 c-121 -24 -243 -114 -294 -219 -58 -119 -79 -306 -48
-430 35 -142 124 -256 249 -317 74 -37 79 -38 187 -38 108 0 113 1 186 37 88
44 165 116 208 198 77 144 80 367 7 526 -31 68 -120 162 -186 198 -86 47 -209
65 -309 45z m166 -214 c21 -9 46 -23 56 -33 58 -52 88 -199 69 -339 -19 -138
-67 -202 -161 -211 -110 -10 -174 28 -212 126 -17 46 -22 78 -22 172 0 130 21
206 71 252 50 47 132 61 199 33z"/>
<path d="M8647 2030 c-165 -28 -302 -174 -342 -365 -27 -127 -11 -291 39 -400
29 -64 112 -156 173 -192 125 -73 315 -73 456 -1 65 33 187 157 187 190 0 9
-143 80 -185 91 -16 5 -26 -4 -47 -39 -36 -58 -89 -83 -177 -84 -88 0 -140 30
-175 102 -13 29 -28 72 -31 96 l-7 42 311 0 311 0 0 70 c0 39 -7 106 -16 148
-41 202 -153 315 -339 342 -79 11 -91 11 -158 0z m156 -204 c67 -24 107 -78
122 -164 l7 -43 -196 1 -196 2 0 26 c0 34 41 121 66 144 51 45 128 58 197 34z"/>
<path d="M7435 2022 c-3 -3 -5 -223 -5 -489 l0 -483 120 0 120 0 0 490 0 491
-115 -2 c-63 -1 -117 -5 -120 -7z"/>
<path d="M2625 1955 c14 -36 61 -161 106 -278 44 -116 107 -284 139 -372 32
-88 67 -184 79 -213 l21 -52 -20 -53 c-32 -85 -56 -117 -107 -139 -37 -16 -59
-19 -108 -15 l-62 6 -2 -100 c-2 -86 0 -100 15 -106 29 -11 198 14 253 37 62
27 133 101 178 186 18 33 114 302 213 598 100 297 184 545 187 552 4 11 -18
14 -115 14 l-120 0 -16 -47 c-21 -65 -117 -404 -151 -531 -16 -56 -30 -100
-33 -97 -3 3 -55 154 -116 337 l-112 333 -127 3 -126 3 24 -66z"/>
</g>
</svg>
